<svg width="177" height="43" viewBox="0 0 177 43" fill="none" xmlns="http://www.w3.org/2000/svg">
<path d="M50.1667 9.16669C50.1667 8.06212 49.2712 7.16669 48.1667 7.16669H2C0.895433 7.16669 0 8.06212 0 9.16669V41C0 42.1046 0.895431 43 2 43H48.1667C49.2712 43 50.1667 42.1046 50.1667 41V9.16669Z" fill="url(#paint0_linear)"/>
<path d="M44.7917 3.58331H5.37502C4.88027 3.58331 4.47919 3.98439 4.47919 4.47915C4.47919 4.9739 4.88026 5.37498 5.37502 5.37498H44.7917C45.2864 5.37498 45.6875 4.9739 45.6875 4.47915C45.6875 3.98439 45.2864 3.58331 44.7917 3.58331Z" fill="#4EA8DE" fill-opacity="0.85"/>
<path d="M41.2083 0H8.95833C8.46358 0 8.0625 0.401078 8.0625 0.895833C8.0625 1.39059 8.46358 1.79167 8.95833 1.79167H41.2083C41.7031 1.79167 42.1042 1.39059 42.1042 0.895833C42.1042 0.401078 41.7031 0 41.2083 0Z" fill="#4EA8DE" fill-opacity="0.75"/>
<path d="M22.5711 34.6784C22.2541 34.9954 21.805 35.2596 21.4087 35.2596C21.0124 35.2596 20.5633 34.9822 20.2331 34.6652L14.0114 28.4436C13.3622 27.7943 13.3622 26.7416 14.0114 26.0923C14.6607 25.443 15.7134 25.443 16.3627 26.0923L20.0026 29.7322C20.7857 30.5152 22.0559 30.5129 22.8361 29.7271L36.7123 15.7508C37.3683 15.0901 38.439 15.0972 39.0861 15.7666C39.7153 16.4173 39.7079 17.4518 39.0696 18.0935L22.5711 34.6784Z" fill="white"/>
<path d="M82.3483 19.812C86.5483 19.812 88.6483 22.428 88.6483 27.66V37.272C88.6483 37.776 88.4923 38.196 88.1803 38.532C87.8683 38.844 87.4603 39 86.9563 39C86.4523 39 86.0323 38.832 85.6963 38.496C85.3843 38.16 85.2283 37.752 85.2283 37.272V27.696C85.2283 24.552 83.9083 22.98 81.2683 22.98C80.3323 22.98 79.4803 23.196 78.7123 23.628C77.9683 24.036 77.3803 24.6 76.9483 25.32C76.5403 26.04 76.3362 26.832 76.3362 27.696V37.272C76.3362 37.752 76.1683 38.16 75.8323 38.496C75.5203 38.832 75.1123 39 74.6083 39C74.1043 39 73.6963 38.844 73.3843 38.532C73.0723 38.196 72.9163 37.776 72.9163 37.272V27.66C72.9163 26.244 72.6163 25.116 72.0163 24.276C71.4163 23.412 70.4203 22.98 69.0283 22.98C67.6123 22.98 66.4363 23.436 65.5003 24.348C64.5883 25.236 64.1323 26.34 64.1323 27.66V37.272C64.1323 37.752 63.9643 38.16 63.6283 38.496C63.3163 38.832 62.9083 39 62.4043 39C61.9003 39 61.4923 38.844 61.1803 38.532C60.8683 38.196 60.7123 37.776 60.7123 37.272V21.864C60.7123 21.384 60.8683 20.976 61.1803 20.64C61.5163 20.304 61.9243 20.136 62.4043 20.136C62.9083 20.136 63.3163 20.304 63.6283 20.64C63.9643 20.976 64.1323 21.384 64.1323 21.864V23.124C64.7563 22.188 65.5843 21.408 66.6163 20.784C67.6723 20.136 68.8123 19.812 70.0363 19.812C73.0123 19.812 74.9443 21.132 75.8323 23.772C76.3603 22.764 77.2363 21.852 78.4603 21.036C79.6843 20.22 80.9803 19.812 82.3483 19.812ZM109.059 19.884C109.563 19.884 109.971 20.052 110.283 20.388C110.619 20.7 110.787 21.12 110.787 21.648V37.272C110.787 37.752 110.619 38.16 110.283 38.496C109.971 38.832 109.563 39 109.059 39C108.555 39 108.147 38.844 107.835 38.532C107.523 38.196 107.367 37.776 107.367 37.272V36.336C106.743 37.176 105.891 37.896 104.811 38.496C103.731 39.072 102.567 39.36 101.319 39.36C99.6871 39.36 98.1991 38.94 96.8551 38.1C95.5351 37.26 94.4911 36.096 93.7231 34.608C92.9791 33.096 92.6071 31.404 92.6071 29.532C92.6071 27.66 92.9791 25.98 93.7231 24.492C94.4911 22.98 95.5351 21.804 96.8551 20.964C98.1751 20.124 99.6271 19.704 101.211 19.704C102.483 19.704 103.659 19.968 104.739 20.496C105.843 21.024 106.719 21.696 107.367 22.512V21.648C107.367 21.144 107.523 20.724 107.835 20.388C108.147 20.052 108.555 19.884 109.059 19.884ZM101.715 36.192C102.843 36.192 103.839 35.904 104.703 35.328C105.591 34.752 106.275 33.96 106.755 32.952C107.259 31.944 107.511 30.804 107.511 29.532C107.511 28.284 107.259 27.156 106.755 26.148C106.275 25.14 105.591 24.348 104.703 23.772C103.839 23.172 102.843 22.872 101.715 22.872C100.587 22.872 99.5791 23.16 98.6911 23.736C97.8271 24.312 97.1431 25.104 96.6391 26.112C96.1591 27.12 95.9191 28.26 95.9191 29.532C95.9191 30.804 96.1591 31.944 96.6391 32.952C97.1431 33.96 97.8271 34.752 98.6911 35.328C99.5791 35.904 100.587 36.192 101.715 36.192ZM125.268 19.704C125.892 19.704 126.432 19.872 126.888 20.208C127.344 20.52 127.572 20.916 127.572 21.396C127.572 21.972 127.416 22.416 127.104 22.728C126.816 23.016 126.456 23.16 126.024 23.16C125.808 23.16 125.484 23.088 125.052 22.944C124.548 22.776 124.152 22.692 123.864 22.692C123.12 22.692 122.388 22.956 121.668 23.484C120.972 23.988 120.396 24.696 119.94 25.608C119.508 26.496 119.292 27.492 119.292 28.596V37.272C119.292 37.752 119.124 38.16 118.788 38.496C118.476 38.832 118.068 39 117.564 39C117.06 39 116.652 38.844 116.34 38.532C116.028 38.196 115.872 37.776 115.872 37.272V21.864C115.872 21.384 116.028 20.976 116.34 20.64C116.676 20.304 117.084 20.136 117.564 20.136C118.068 20.136 118.476 20.304 118.788 20.64C119.124 20.976 119.292 21.384 119.292 21.864V23.7C119.82 22.524 120.612 21.576 121.668 20.856C122.724 20.112 123.924 19.728 125.268 19.704ZM129.664 36.048C129.448 35.712 129.34 35.388 129.34 35.076C129.34 34.596 129.592 34.188 130.096 33.852C130.336 33.684 130.612 33.6 130.924 33.6C131.356 33.6 131.752 33.78 132.112 34.14C132.832 34.956 133.6 35.568 134.416 35.976C135.256 36.384 136.252 36.588 137.404 36.588C138.316 36.564 139.12 36.36 139.816 35.976C140.512 35.568 140.86 34.92 140.86 34.032C140.86 33.216 140.5 32.592 139.78 32.16C139.084 31.728 138.052 31.332 136.684 30.972C135.34 30.612 134.224 30.24 133.336 29.856C132.448 29.448 131.692 28.872 131.068 28.128C130.468 27.36 130.168 26.364 130.168 25.14C130.168 24.06 130.468 23.112 131.068 22.296C131.692 21.48 132.508 20.844 133.516 20.388C134.548 19.932 135.664 19.704 136.864 19.704C138.016 19.704 139.156 19.92 140.284 20.352C141.436 20.784 142.372 21.444 143.092 22.332C143.38 22.668 143.524 23.016 143.524 23.376C143.524 23.76 143.332 24.132 142.948 24.492C142.708 24.708 142.408 24.816 142.048 24.816C141.616 24.816 141.268 24.672 141.004 24.384C140.5 23.808 139.876 23.364 139.132 23.052C138.412 22.74 137.608 22.584 136.72 22.584C135.808 22.584 135.028 22.776 134.38 23.16C133.756 23.52 133.444 24.144 133.444 25.032C133.468 25.872 133.828 26.496 134.524 26.904C135.244 27.312 136.336 27.708 137.8 28.092C139.072 28.428 140.128 28.788 140.968 29.172C141.808 29.556 142.516 30.132 143.092 30.9C143.668 31.644 143.956 32.628 143.956 33.852C143.956 34.98 143.632 35.964 142.984 36.804C142.336 37.62 141.484 38.256 140.428 38.712C139.396 39.144 138.292 39.36 137.116 39.36C135.604 39.36 134.2 39.096 132.904 38.568C131.632 38.04 130.552 37.2 129.664 36.048ZM163.481 19.884C163.985 19.884 164.393 20.052 164.705 20.388C165.041 20.7 165.209 21.12 165.209 21.648V37.272C165.209 37.752 165.041 38.16 164.705 38.496C164.393 38.832 163.985 39 163.481 39C162.977 39 162.569 38.844 162.257 38.532C161.945 38.196 161.789 37.776 161.789 37.272V36.336C161.165 37.176 160.313 37.896 159.233 38.496C158.153 39.072 156.989 39.36 155.741 39.36C154.109 39.36 152.621 38.94 151.277 38.1C149.957 37.26 148.913 36.096 148.145 34.608C147.401 33.096 147.029 31.404 147.029 29.532C147.029 27.66 147.401 25.98 148.145 24.492C148.913 22.98 149.957 21.804 151.277 20.964C152.597 20.124 154.049 19.704 155.633 19.704C156.905 19.704 158.081 19.968 159.161 20.496C160.265 21.024 161.141 21.696 161.789 22.512V21.648C161.789 21.144 161.945 20.724 162.257 20.388C162.569 20.052 162.977 19.884 163.481 19.884ZM156.137 36.192C157.265 36.192 158.261 35.904 159.125 35.328C160.013 34.752 160.697 33.96 161.177 32.952C161.681 31.944 161.933 30.804 161.933 29.532C161.933 28.284 161.681 27.156 161.177 26.148C160.697 25.14 160.013 24.348 159.125 23.772C158.261 23.172 157.265 22.872 156.137 22.872C155.009 22.872 154.001 23.16 153.113 23.736C152.249 24.312 151.565 25.104 151.061 26.112C150.581 27.12 150.341 28.26 150.341 29.532C150.341 30.804 150.581 31.944 151.061 32.952C151.565 33.96 152.249 34.752 153.113 35.328C154.001 35.904 155.009 36.192 156.137 36.192ZM174.002 37.272C174.002 37.752 173.834 38.16 173.498 38.496C173.162 38.832 172.754 39 172.274 39C171.794 39 171.386 38.832 171.05 38.496C170.738 38.16 170.582 37.752 170.582 37.272V14.088C170.582 13.608 170.75 13.2 171.086 12.864C171.422 12.528 171.83 12.36 172.31 12.36C172.79 12.36 173.186 12.528 173.498 12.864C173.834 13.2 174.002 13.608 174.002 14.088V37.272Z" fill="#0353A4"/>
<defs>
<linearGradient id="paint0_linear" x1="25.0833" y1="7.16669" x2="25.0833" y2="43" gradientUnits="userSpaceOnUse">
<stop stop-color="#4EA8DE"/>
<stop offset="1" stop-color="#0466C8"/>
</linearGradient>
</defs>
</svg>
