<svg width="15" height="4" viewBox="0 0 15 4" fill="none" xmlns="http://www.w3.org/2000/svg">
<path d="M1.875 0C0.843656 0 0 0.8999 0 2C0 3.1001 0.843656 4 1.875 4C2.90634 4 3.75 3.1001 3.75 2C3.75 0.8999 2.90634 0 1.875 0ZM13.125 0C12.0937 0 11.25 0.8999 11.25 2C11.25 3.1001 12.0937 4 13.125 4C14.1563 4 15 3.1001 15 2C15 0.8999 14.1563 0 13.125 0ZM7.5 0C6.46866 0 5.625 0.8999 5.625 2C5.625 3.1001 6.46866 4 7.5 4C8.53134 4 9.375 3.1001 9.375 2C9.375 0.8999 8.53134 0 7.5 0Z" fill="#797C80"/>
</svg>
