<svg width="38" height="32" viewBox="0 0 38 32" fill="none" xmlns="http://www.w3.org/2000/svg">
<path d="M37.3333 7.33325C37.3333 6.22868 36.4379 5.33325 35.3333 5.33325H2C0.895427 5.33325 0 6.22868 0 7.33325V29.9999C0 31.1045 0.89543 31.9999 2 31.9999H35.3333C36.4379 31.9999 37.3333 31.1045 37.3333 29.9999V7.33325Z" fill="url(#paint0_linear)"/>
<path d="M33.3333 2.66675H4.00001C3.63182 2.66675 3.33334 2.96522 3.33334 3.33341C3.33334 3.7016 3.63182 4.00008 4.00001 4.00008H33.3333C33.7015 4.00008 34 3.7016 34 3.33341C34 2.96522 33.7015 2.66675 33.3333 2.66675Z" fill="#4EA8DE" fill-opacity="0.85"/>
<path d="M30.6667 0H6.66666C6.29847 0 5.99999 0.298477 5.99999 0.666667C5.99999 1.03486 6.29847 1.33333 6.66666 1.33333H30.6667C31.0349 1.33333 31.3333 1.03486 31.3333 0.666667C31.3333 0.298477 31.0349 0 30.6667 0Z" fill="#4EA8DE" fill-opacity="0.75"/>
<path d="M16.7971 25.8072C16.5612 26.0432 16.227 26.2398 15.9321 26.2398C15.6372 26.2398 15.3029 26.0333 15.0572 25.7974L10.4271 21.1674C9.94393 20.6842 9.94393 19.9008 10.4271 19.4176C10.9103 18.9344 11.6937 18.9344 12.1769 19.4176L14.5226 21.7632C15.3056 22.5463 16.5759 22.544 17.3561 21.7582L27.3208 11.7216C27.8089 11.2299 28.6058 11.2352 29.0874 11.7333C29.5556 12.2176 29.5501 12.9875 29.075 13.465L16.7971 25.8072Z" fill="white"/>
<defs>
<linearGradient id="paint0_linear" x1="18.6667" y1="5.33325" x2="18.6667" y2="31.9999" gradientUnits="userSpaceOnUse">
<stop stop-color="#4EA8DE"/>
<stop offset="1" stop-color="#0466C8"/>
</linearGradient>
</defs>
</svg>
